<?xml version="1.0" standalone="no"?>
<!DOCTYPE svg PUBLIC "-//W3C//DTD SVG 20010904//EN"
 "http://www.w3.org/TR/2001/REC-SVG-20010904/DTD/svg10.dtd">
<svg version="1.0" xmlns="http://www.w3.org/2000/svg"
 width="310.000000pt" height="310.000000pt" viewBox="0 0 310.000000 310.000000"
 preserveAspectRatio="xMidYMid meet">
<metadata>
Created by potrace 1.11, written by Peter Selinger 2001-2013
</metadata>
<g transform="translate(0.000000,310.000000) scale(0.100000,-0.100000)"
fill="#000000" stroke="none">
<path d="M142 3079 c-43 -13 -109 -82 -122 -128 -16 -57 -14 -2751 2 -2805 16
-52 72 -108 125 -124 31 -9 353 -12 1414 -11 1370 0 1374 0 1417 21 50 24 85
67 101 123 9 29 11 406 9 1421 l-3 1380 -27 41 c-15 22 -44 51 -65 64 l-38 24
-1390 2 c-859 1 -1403 -2 -1423 -8z"/>
</g>
</svg>
