<?xml version="1.0" encoding="utf-8"?>
<!-- Generator: Adobe Illustrator 18.0.0, SVG Export Plug-In . SVG Version: 6.00 Build 0)  -->
<!DOCTYPE svg PUBLIC "-//W3C//DTD SVG 1.1//EN" "http://www.w3.org/Graphics/SVG/1.1/DTD/svg11.dtd">
<svg version="1.1" id="Camada_1" xmlns="http://www.w3.org/2000/svg" xmlns:xlink="http://www.w3.org/1999/xlink" x="0px" y="0px"
	 viewBox="0 0 44 37" enable-background="new 0 0 44 37" xml:space="preserve">
<path fill-rule="evenodd" clip-rule="evenodd" fill="#F71A24" d="M34,0H10C4.5,0,0,4.5,0,10v7c0,4.1,2.5,7.6,6,9.2V37l10-10h18
	c5.5,0,10-4.5,10-10v-7C44,4.5,39.5,0,34,0z M42,16.5c0,4.7-4.1,8.5-9.1,8.5H15l-7,7v-7.5c-3.5-1.2-6-4.3-6-8v-6C2,5.8,6.1,2,11.1,2
	h21.8c5,0,9.1,3.8,9.1,8.5V16.5z"/>
<path fill-rule="evenodd" clip-rule="evenodd" fill="#262A6C" d="M22,12.3c1.1,0,2,0.9,2,2c0,1.1-0.9,2-2,2c-1.1,0-2-0.9-2-2
	C20,13.2,20.9,12.3,22,12.3z"/>
<path fill-rule="evenodd" clip-rule="evenodd" fill="#262A6C" d="M30,12.3c1.1,0,2,0.9,2,2c0,1.1-0.9,2-2,2c-1.1,0-2-0.9-2-2
	C28,13.2,28.9,12.3,30,12.3z"/>
<path fill-rule="evenodd" clip-rule="evenodd" fill="#262A6C" d="M14,12.3c1.1,0,2,0.9,2,2c0,1.1-0.9,2-2,2s-2-0.9-2-2
	C12,13.2,12.9,12.3,14,12.3z"/>
</svg>
