<?xml version="1.0" encoding="utf-8"?>
<!-- Generator: Adobe Illustrator 18.0.0, SVG Export Plug-In . SVG Version: 6.00 Build 0)  -->
<!DOCTYPE svg PUBLIC "-//W3C//DTD SVG 1.1//EN" "http://www.w3.org/Graphics/SVG/1.1/DTD/svg11.dtd">
<svg version="1.1" id="Camada_1" xmlns="http://www.w3.org/2000/svg" xmlns:xlink="http://www.w3.org/1999/xlink" x="0px" y="0px"
	 viewBox="0 0 26 16" enable-background="new 0 0 26 16" xml:space="preserve">
<path fill-rule="evenodd" clip-rule="evenodd" fill="#F71A24" d="M26,16h-7.3H18h-2v-0.7c2.4-1.1,4-3.5,4-6.3c0-3.9-3.1-7-7-7
	C9.1,2,6,5.1,6,9c0,2.8,1.6,5.2,4,6.3V16H8H7.3H0v-2h5.5C4.6,12.6,4,10.9,4,9c0-5,4-9,9-9c5,0,9,4,9,9c0,1.9-0.6,3.6-1.5,5H26V16z"
	/>
</svg>
