<?xml version="1.0" encoding="utf-8"?>
<!-- Generator: Adobe Illustrator 18.0.0, SVG Export Plug-In . SVG Version: 6.00 Build 0)  -->
<!DOCTYPE svg PUBLIC "-//W3C//DTD SVG 1.1//EN" "http://www.w3.org/Graphics/SVG/1.1/DTD/svg11.dtd">
<svg version="1.1" id="Camada_1" xmlns="http://www.w3.org/2000/svg" xmlns:xlink="http://www.w3.org/1999/xlink" x="0px" y="0px"
	 viewBox="0 0 106.5 25.1" enable-background="new 0 0 106.5 25.1" xml:space="preserve">
<path fill-rule="evenodd" clip-rule="evenodd" fill="#D3D3D3" d="M96.9,25.1H22.6c-4.1,0.2-2.5,0.1-2.6-3.9l0-9.8
	c0-2.3-5.8-5.6-6-6.7c-0.3-1.3,5.5-0.3,8.6-0.5l74.3,0c5.3,0,9.6,4.3,9.6,9.5v1.9C106.5,20.8,102.2,25.1,96.9,25.1z"/>
<path fill-rule="evenodd" clip-rule="evenodd" fill="#FFFFFF" d="M96.4,24.1H22.6c-5.2,0-2.8,0.2-2.6-3.9v-9.8C20,8,11,5.1,10.7,4
	c-0.3-1.3,8.7-0.6,11.9-0.9l73.8,0c5.2,0,9.5,4.3,9.5,9.5v1.9C105.9,19.8,101.7,24.1,96.4,24.1z"/>
<path fill-rule="evenodd" clip-rule="evenodd" fill="none" stroke="#3C4491" stroke-width="2" stroke-miterlimit="10" d="M6.7,20
	v-6.2h6V20v3.1h7V10.6l-11-9.3l-8,7.3"/>
<g>
	<path fill="#404592" d="M34.9,16.9l0.5-2.4h-2.1l0.4-2h4.9l-1.1,5.7c-1.2,0.5-2.6,0.9-4.2,0.9c-3.5,0-5.5-1.7-5.5-5.1
		c0-3.8,2.6-7,7.4-7c1.7,0,3.1,0.4,4.3,1.1l-1.1,2.1c-0.9-0.6-1.9-1-3.2-1c-3,0-4.3,2.1-4.3,4.7c0,2.3,1.1,3.1,2.9,3.1
		C34,17,34.5,17,34.9,16.9z"/>
	<path fill="#404592" d="M38.8,15.3c0-2.8,2.1-4.9,5.1-4.9c2.3,0,4.1,1.2,4.1,3.8c0,2.8-2.1,4.9-5.1,4.9
		C40.6,19.1,38.8,17.9,38.8,15.3z M45.2,14.2c0-1.3-0.5-1.9-1.3-1.9c-1.3,0-2.1,1.4-2.1,3c0,1.3,0.5,1.9,1.3,1.9
		C44.3,17.3,45.2,15.9,45.2,14.2z"/>
	<path fill="#404592" d="M53.5,7.2h2.9l-0.9,4.6h4.4l0.9-4.6h2.9l-2.3,11.7h-2.9l1-4.9h-4.4l-1,4.9h-2.9L53.5,7.2z"/>
	<path fill="#404592" d="M63.2,15.3c0-2.8,2.1-4.9,5.1-4.9c2.3,0,4.1,1.2,4.1,3.8c0,2.8-2.1,4.9-5.1,4.9
		C65,19.1,63.2,17.9,63.2,15.3z M69.5,14.2c0-1.3-0.5-1.9-1.3-1.9c-1.3,0-2.1,1.4-2.1,3c0,1.3,0.5,1.9,1.3,1.9
		C68.7,17.3,69.5,15.9,69.5,14.2z"/>
	<path fill="#404592" d="M77.6,18.9l1-5.3c0-0.1,0-0.2,0-0.3c0-0.5-0.3-0.6-0.7-0.6c-0.6,0-1.1,0.3-1.8,0.9l-1,5.3h-2.9l1.6-8.3h2.9
		l-0.2,1.1c0.9-0.8,1.9-1.3,3-1.3c1,0,1.9,0.4,2.1,1.5c0.8-0.8,1.9-1.5,3.2-1.5c1,0,2.2,0.4,2.2,2.1c0,0.2,0,0.5-0.1,0.8l-1.1,5.6
		h-2.9l1-5.3c0-0.1,0-0.2,0-0.3c0-0.5-0.3-0.6-0.7-0.6c-0.6,0-1.1,0.3-1.8,0.9l-1,5.3H77.6z"/>
	<path fill="#404592" d="M96,12.9c0,1.6-1.5,2.8-5.1,2.8c-0.3,0-0.6,0-0.9,0c0.1,1.1,0.7,1.6,1.9,1.6c0.8,0,1.9-0.2,2.8-0.6l0.2,1.8
		c-1,0.4-2.2,0.6-3.4,0.6c-2.8,0-4.3-1.2-4.3-3.6c0-2.8,2.1-5,5.4-5C94.8,10.4,96,11.5,96,12.9z M90.1,14.2h0.6c2,0,2.6-0.5,2.6-1.1
		c0-0.5-0.3-0.9-1-0.9C91.3,12.2,90.5,13,90.1,14.2z"/>
</g>
</svg>
