<?xml version="1.0" encoding="utf-8"?>
<!-- Generator: Adobe Illustrator 18.0.0, SVG Export Plug-In . SVG Version: 6.00 Build 0)  -->
<!DOCTYPE svg PUBLIC "-//W3C//DTD SVG 1.1//EN" "http://www.w3.org/Graphics/SVG/1.1/DTD/svg11.dtd">
<svg version="1.1" id="Camada_1" xmlns="http://www.w3.org/2000/svg" xmlns:xlink="http://www.w3.org/1999/xlink" x="0px" y="0px"
	 viewBox="0 0 60 60" enable-background="new 0 0 60 60" xml:space="preserve">
<path fill-rule="evenodd" clip-rule="evenodd" fill="#FB0F0C" d="M30,6c-2.2,0-4,1.8-4,4c0,2.2,1.8,4,4,4c2.2,0,4-1.8,4-4
	C34,7.8,32.2,6,30,6z M30,12c-1.1,0-2-0.9-2-2c0-1.1,0.9-2,2-2c1.1,0,2,0.9,2,2C32,11.1,31.1,12,30,12z"/>
<path fill-rule="evenodd" clip-rule="evenodd" fill="#FB0F0C" d="M44,42H33.1c0,0,0,0,0,0H33c0,0,0,0-0.1,0c-0.1,0-0.2,0-0.3,0.1
	c0,0,0,0-0.1,0c-0.1,0-0.2,0.1-0.3,0.2c0,0,0,0,0,0c0,0-0.1,0.1-0.1,0.1l-6,10.1c-0.3,0.5-0.1,1.1,0.4,1.3c0.5,0.3,1.1,0.1,1.4-0.4
	l5.7-9.5H44c0.6,0,1-0.4,1-1C45,42.4,44.6,42,44,42z"/>
<path fill-rule="evenodd" clip-rule="evenodd" fill="#1B4164" d="M52,38c0,12.2-9.8,22-22,22C17.9,60,8,50.2,8,38
	c0-8.3,4.6-15.6,11.5-19.3l0.9,1.8C14.2,23.9,10,30.4,10,38c0,11,9,20,20,20s20-9,20-20c0-7.6-4.2-14.1-10.4-17.5l0.9-1.8
	C47.4,22.4,52,29.7,52,38z"/>
<path fill-rule="evenodd" clip-rule="evenodd" fill="#1B4164" d="M30,0c-5.5,0-10,4.5-10,10c0,1.8,0.5,3.5,1.4,5L30,32l8.6-17
	c0.9-1.5,1.4-3.2,1.4-5C40,4.5,35.5,0,30,0z M37.1,13.7L30,28l-7.1-14.3h0C22.3,12.6,22,11.3,22,10c0-4.4,3.6-8,8-8c4.4,0,8,3.6,8,8
	C38,11.3,37.7,12.6,37.1,13.7L37.1,13.7z"/>
<path fill-rule="evenodd" clip-rule="evenodd" fill="#1B4164" d="M0.7,44l58-15c0.5-0.1,1.1,0.2,1.2,0.7c0.1,0.5-0.2,1.1-0.7,1.2
	l-58,15c-0.5,0.1-1.1-0.2-1.2-0.7C-0.1,44.7,0.2,44.2,0.7,44z"/>
</svg>
