<?xml version="1.0" encoding="utf-8"?>
<!-- Generator: Adobe Illustrator 18.0.0, SVG Export Plug-In . SVG Version: 6.00 Build 0)  -->
<!DOCTYPE svg PUBLIC "-//W3C//DTD SVG 1.1//EN" "http://www.w3.org/Graphics/SVG/1.1/DTD/svg11.dtd">
<svg version="1.1" id="Camada_1" xmlns="http://www.w3.org/2000/svg" xmlns:xlink="http://www.w3.org/1999/xlink" x="0px" y="0px"
	 viewBox="0 0 40.3 48.1" enable-background="new 0 0 40.3 48.1" xml:space="preserve">
<path fill-rule="evenodd" clip-rule="evenodd" fill="#9FAFB6" d="M4,0h32c2.2,0,4,1.8,4,4c0,0,0,22.4,0,34c0,1,0.6-0.6,0,0
	c-10.9,10,0,0.1-11,10c-0.2,0.2,0.2,0,0,0c-9.3,0-25,0-25,0c-2.2,0-4-1.8-4-4V4C0,1.8,1.8,0,4,0z M27,36h2v12h-2V36z M29,36h11v2H29
	V36z M7,7h26v2H7V7z M7,12h26v2H7V12z M7,17h26v2H7V17z M7,22h14v2H7V22z M7,27h14v2H7V27z M24,27h9v2h-9V27z"/>
</svg>
