<?xml version="1.0" encoding="utf-8"?>
<!-- Generator: Adobe Illustrator 18.0.0, SVG Export Plug-In . SVG Version: 6.00 Build 0)  -->
<!DOCTYPE svg PUBLIC "-//W3C//DTD SVG 1.1//EN" "http://www.w3.org/Graphics/SVG/1.1/DTD/svg11.dtd">
<svg version="1.1" id="Camada_1" xmlns="http://www.w3.org/2000/svg" xmlns:xlink="http://www.w3.org/1999/xlink" x="0px" y="0px"
	 viewBox="0 0 44 44" enable-background="new 0 0 44 44" xml:space="preserve">
<path fill-rule="evenodd" clip-rule="evenodd" fill="#F6212E" d="M22,0C9.8,0,0,9.8,0,22c0,12.2,9.8,22,22,22s22-9.8,22-22
	C44,9.8,34.2,0,22,0z M22,42C11,42,2,33,2,22S11,2,22,2c11,0,20,9,20,20S33,42,22,42z"/>
<path fill-rule="evenodd" clip-rule="evenodd" fill="#F6212E" d="M29.8,14.2c-2-2-4.7-3.2-7.8-3.2c-6.1,0-11,4.9-11,11s4.9,11,11,11
	c3,0,5.8-1.2,7.8-3.2l1.4,1.4C28.8,33.5,25.6,35,22,35c-7.2,0-13-5.8-13-13c0-7.2,5.8-13,13-13c3.6,0,6.8,1.5,9.2,3.8L29.8,14.2z"/>
</svg>
